<svg width="24" height="18" viewBox="0 0 24 18" fill="none" xmlns="http://www.w3.org/2000/svg">
<path d="M21.2868 7.51868C20.8799 7.51868 20.4342 7.82159 20.4342 8.54986H22.1007C22.1007 7.82159 21.6808 7.51868 21.2868 7.51868Z" fill="#1E212C"/>
<path d="M15.9519 10.6509C15.5708 10.6509 15.3447 10.5155 15.1897 10.348L15.1833 7.95693C15.3512 7.77003 15.5837 7.64114 15.9519 7.64114C16.5397 7.64114 16.9466 8.29851 16.9466 9.14278C16.9466 10.0064 16.5462 10.6509 15.9519 10.6509Z" fill="#1E212C"/>
<path fill-rule="evenodd" clip-rule="evenodd" d="M2.8125 0C1.2592 0 0 1.2592 0 2.8125V15.1875C0 16.7408 1.2592 18 2.8125 18H21.1875C22.7408 18 24 16.7408 24 15.1875V2.8125C24 1.2592 22.7408 0 21.1875 0H2.8125ZM21.2932 6.21038C22.8241 6.21038 23.625 7.51224 23.625 9.16212C23.625 9.25117 23.6208 9.40003 23.6171 9.5263C23.6144 9.61928 23.6121 9.70019 23.6121 9.73571H20.4535C20.5246 10.4962 21.0801 10.7153 21.7066 10.7153C22.3461 10.7153 22.8499 10.58 23.2892 10.3609V11.6498C22.8499 11.8947 22.2686 12.0687 21.4999 12.0687C19.9239 12.0687 18.8258 11.0891 18.8258 9.14923C18.8258 7.51224 19.7559 6.21038 21.2932 6.21038ZM16.3395 6.21038C15.7065 6.21038 15.2995 6.50684 15.0734 6.71308L14.9895 6.3135H13.5684V13.8282L15.1833 13.4866L15.1897 11.6627C15.4222 11.8303 15.7646 12.0687 16.333 12.0687C17.4892 12.0687 18.5421 11.1407 18.5421 9.09767C18.5356 7.22867 17.4698 6.21038 16.3395 6.21038ZM12.964 4.17188V5.48018L11.3427 5.8282V4.51345L12.964 4.17188ZM12.964 6.31315H11.3427V11.9524H12.964V6.31315ZM9.50201 6.32219L9.60536 6.79911C9.98646 6.10306 10.7422 6.24485 10.9489 6.32219V7.8045C10.7486 7.73361 10.1027 7.64338 9.72163 8.13964V11.9614H8.10681V6.32219H9.50201ZM6.37393 4.91862L4.79787 5.25375L4.79141 10.4161C4.79141 11.3699 5.50839 12.0724 6.46436 12.0724C6.99402 12.0724 7.38158 11.9757 7.59473 11.8597V10.5514C7.38804 10.6352 6.36747 10.9317 6.36747 9.97782V7.6899H7.59473V6.31715H6.36747L6.37393 4.91862ZM2.55823 7.60891C2.21589 7.60891 2.00919 7.70558 2.00919 7.95693C2.00919 8.23137 2.36492 8.35209 2.80624 8.50185C3.5257 8.74601 4.47263 9.06736 4.47663 10.2577C4.47663 11.4114 3.55296 12.0752 2.20943 12.0752C1.65393 12.0752 1.04676 11.9656 0.446052 11.7078V10.174C0.98863 10.4704 1.67331 10.6895 2.20943 10.6895C2.57115 10.6895 2.82952 10.5929 2.82952 10.2964C2.82952 9.99243 2.4439 9.85348 1.97836 9.68573C1.26937 9.43027 0.375 9.10801 0.375 8.03427C0.375 6.89353 1.247 6.21038 2.55823 6.21038C3.09435 6.21038 3.62401 6.29416 4.16013 6.50684V8.02138C3.66922 7.75714 3.04914 7.60891 2.55823 7.60891Z" fill="#1E212C"/>
</svg>
