<svg width="24" height="22" viewBox="0 0 24 22" fill="none" xmlns="http://www.w3.org/2000/svg">
<path d="M9.16406 0.6875C4.472 0.6875 0.65625 3.99192 0.65625 8.05357C0.65625 10.2 1.71122 12.1918 3.57301 13.6061L2.85836 15.0911C2.72507 15.3666 2.77186 15.701 2.97605 15.925C3.11217 16.0752 3.30076 16.1562 3.49219 16.1562C3.58577 16.1562 3.68078 16.1371 3.77153 16.0973L6.2785 14.9821C7.45399 15.3519 8.70748 15.4638 9.96522 15.3887C10.3566 15.3681 10.6572 15.0204 10.6359 14.6138C10.6146 14.2057 10.2431 13.8728 9.89006 13.9184C8.71598 13.9803 7.55041 13.8728 6.46709 13.4971C6.3026 13.4411 6.12394 13.45 5.96371 13.5192L4.9924 13.9523L5.12002 13.6857C5.28308 13.3468 5.17106 12.9329 4.86053 12.7325C3.08948 11.5834 2.07422 9.87888 2.07422 8.05357C2.07422 4.80366 5.25472 2.16071 9.16406 2.16071C13.0734 2.16071 16.2539 4.80366 16.2539 8.05357C16.2539 8.27455 16.244 8.48228 16.2085 8.69C16.1391 9.09072 16.3971 9.47375 16.7814 9.54446C17.1727 9.6196 17.5343 9.35 17.6038 8.94928C17.6534 8.65612 17.6719 8.36295 17.6719 8.05357C17.6719 3.99192 13.8561 0.6875 9.16406 0.6875Z" fill="#1E212C"/>
<path d="M20.9403 18.3528C22.4561 17.2391 23.3438 15.6333 23.3438 13.9464C23.3438 10.6965 20.1632 8.05357 16.2539 8.05357C12.3446 8.05357 9.16406 10.6965 9.16406 13.9464C9.16406 17.5455 13.0209 20.4507 17.5358 19.7376L20.9375 21.2536C21.0268 21.2919 21.1232 21.3125 21.2168 21.3125C21.4082 21.3125 21.5968 21.2315 21.7329 21.0797C21.9385 20.8558 21.9853 20.5229 21.852 20.2459L20.9403 18.3528ZM19.6684 17.4497C19.3422 17.6442 19.2189 18.0685 19.3862 18.4176L19.7166 19.1071L17.9044 18.2983C17.8165 18.26 17.7201 18.2394 17.6251 18.2394C17.584 18.2394 17.5443 18.2423 17.5046 18.2497C17.0692 18.3292 16.6594 18.3661 16.2539 18.3661C13.1259 18.3661 10.582 16.3831 10.582 13.9464C10.582 11.5097 13.1259 9.52679 16.2539 9.52679C19.3819 9.52679 21.9258 11.5097 21.9258 13.9464C21.9258 15.3195 21.1034 16.5967 19.6684 17.4497Z" fill="#1E212C"/>
<path d="M6.35606 5.10714H6.34188C5.95052 5.10714 5.63999 5.43714 5.63999 5.84375C5.63999 6.25036 5.9647 6.58036 6.35606 6.58036C6.74742 6.58036 7.06504 6.25036 7.06504 5.84375C7.06504 5.43714 6.74742 5.10714 6.35606 5.10714Z" fill="#1E212C"/>
<path d="M12.0279 5.10714H12.0137C11.6224 5.10714 11.3119 5.43714 11.3119 5.84375C11.3119 6.25036 11.6366 6.58036 12.0279 6.58036C12.4193 6.58036 12.7369 6.25036 12.7369 5.84375C12.7369 5.43714 12.4193 5.10714 12.0279 5.10714Z" fill="#1E212C"/>
<path d="M14.1549 11.7366H14.1407C13.7479 11.7366 13.4388 12.0666 13.4388 12.4732C13.4388 12.8798 13.7635 13.2098 14.1549 13.2098C14.5463 13.2098 14.8639 12.8798 14.8639 12.4732C14.8639 12.0666 14.5463 11.7366 14.1549 11.7366Z" fill="#1E212C"/>
<path d="M18.4088 11.7366H18.3946C18.0033 11.7366 17.6927 12.0666 17.6927 12.4732C17.6927 12.8798 18.0189 13.2098 18.4088 13.2098C18.8002 13.2098 19.1178 12.8798 19.1178 12.4732C19.1178 12.0666 18.8002 11.7366 18.4088 11.7366Z" fill="#1E212C"/>
</svg>
